<svg width="200" height="200" viewBox="0 0 200 200" fill="none" xmlns="http://www.w3.org/2000/svg">
<path fill-rule="evenodd" clip-rule="evenodd" d="M104.322 0.0917332C102.889 0.0307842 101.448 0 100 0C44.7715 0 0 44.7715 0 100C0 155.228 44.7715 200 100 200C155.228 200 200 155.228 200 100C200 93.1765 199.317 86.5126 198.014 80.073C182.212 85.1989 173.5 81.1695 173.5 70C155.1 72.4 139.667 63.3333 141 54C133 58 124.4 61.1 114 51.5C103.6 41.9 109.667 25.3333 114 19C102.684 19.4041 101.1 10.9786 104.322 0.0917332Z" fill="#C5A26E"/>
<path d="M188.029 41.9298C194.913 38.1541 188.239 33.07 184.042 31C181.243 31.828 176.612 34.3783 180.474 37.9553C185.301 42.4266 179.425 46.6495 188.029 41.9298Z" fill="#C5A26E"/>
<path d="M198.014 18.4036C195.933 12.8458 191.408 17.2893 189.406 20.2058C189.723 22.3887 190.245 23.6264 194.224 23.6264C196.861 23.6265 200.615 25.3509 198.014 18.4036Z" fill="#C5A26E"/>
<path d="M180.916 19.5792C175.233 21.2879 179.367 26.0966 182.145 28.2873C184.344 28.1154 188.336 30.0692 188.599 26.0991C188.773 23.4676 188.02 17.4434 180.916 19.5792Z" fill="#C5A26E"/>
</svg>
