<svg width="446" height="200" viewBox="0 0 446 200" fill="none" xmlns="http://www.w3.org/2000/svg">
<path fill-rule="evenodd" clip-rule="evenodd" d="M104.322 0.0917332C102.889 0.0307842 101.448 0 100 0C44.7715 0 0 44.7715 0 100C0 155.228 44.7715 200 100 200C155.228 200 200 155.228 200 100C200 93.1765 199.317 86.5126 198.014 80.073C182.212 85.1989 173.5 81.1695 173.5 70C155.1 72.4 139.667 63.3333 141 54C133 58 124.4 61.1 114 51.5C103.6 41.9 109.667 25.3333 114 19C102.684 19.4041 101.1 10.9786 104.322 0.0917332Z" fill="#C5A26E"/>
<path d="M188.029 41.9298C194.913 38.1541 188.239 33.07 184.042 31C181.243 31.828 176.612 34.3783 180.474 37.9553C185.301 42.4266 179.425 46.6495 188.029 41.9298Z" fill="#C5A26E"/>
<path d="M198.014 18.4036C195.933 12.8458 191.408 17.2893 189.406 20.2058C189.723 22.3887 190.245 23.6264 194.224 23.6264C196.861 23.6265 200.615 25.3509 198.014 18.4036Z" fill="#C5A26E"/>
<path d="M180.916 19.5792C175.233 21.2879 179.367 26.0966 182.145 28.2873C184.344 28.1154 188.336 30.0692 188.599 26.0991C188.773 23.4676 188.02 17.4434 180.916 19.5792Z" fill="#C5A26E"/>
<path d="M62.28 140.688C62.28 137.275 62.8773 134.203 64.072 131.472C65.2667 128.699 66.888 126.331 68.936 124.368C70.984 122.405 73.3733 120.912 76.104 119.888C78.8347 118.821 81.736 118.288 84.808 118.288C87.24 118.288 89.3947 118.523 91.272 118.992C93.192 119.461 94.8347 119.995 96.2 120.592C97.7787 121.275 99.144 122.021 100.296 122.832L93.576 134.672C92.8933 134.16 92.1467 133.669 91.336 133.2C90.6107 132.859 89.736 132.539 88.712 132.24C87.7307 131.899 86.6 131.728 85.32 131.728C83.9973 131.728 82.7813 131.963 81.672 132.432C80.5627 132.901 79.5813 133.541 78.728 134.352C77.9173 135.163 77.2773 136.123 76.808 137.232C76.3387 138.299 76.104 139.451 76.104 140.688C76.104 141.925 76.3387 143.099 76.808 144.208C77.32 145.275 78.0027 146.213 78.856 147.024C79.7093 147.835 80.712 148.475 81.864 148.944C83.016 149.413 84.2747 149.648 85.64 149.648C87.0053 149.648 88.2213 149.477 89.288 149.136C90.3547 148.795 91.2507 148.411 91.976 147.984C92.8293 147.515 93.576 146.96 94.216 146.32L100.936 158.16C99.784 159.099 98.4187 159.931 96.84 160.656C95.4747 161.253 93.832 161.808 91.912 162.32C89.992 162.832 87.7947 163.088 85.32 163.088C81.992 163.088 78.92 162.555 76.104 161.488C73.288 160.379 70.856 158.843 68.808 156.88C66.76 154.917 65.16 152.571 64.008 149.84C62.856 147.067 62.28 144.016 62.28 140.688ZM101.593 140.688C101.593 137.616 102.169 134.715 103.321 131.984C104.515 129.253 106.115 126.885 108.121 124.88C110.169 122.832 112.558 121.232 115.289 120.08C118.019 118.885 120.921 118.288 123.993 118.288C127.065 118.288 129.966 118.885 132.697 120.08C135.427 121.232 137.795 122.832 139.801 124.88C141.849 126.885 143.449 129.253 144.601 131.984C145.795 134.715 146.393 137.616 146.393 140.688C146.393 143.76 145.795 146.661 144.601 149.392C143.449 152.123 141.849 154.512 139.801 156.56C137.795 158.565 135.427 160.165 132.697 161.36C129.966 162.512 127.065 163.088 123.993 163.088C120.921 163.088 118.019 162.512 115.289 161.36C112.558 160.165 110.169 158.565 108.121 156.56C106.115 154.512 104.515 152.123 103.321 149.392C102.169 146.661 101.593 143.76 101.593 140.688ZM115.033 140.688C115.033 141.925 115.267 143.099 115.737 144.208C116.206 145.275 116.846 146.213 117.657 147.024C118.467 147.835 119.406 148.475 120.473 148.944C121.582 149.413 122.755 149.648 123.993 149.648C125.23 149.648 126.382 149.413 127.449 148.944C128.558 148.475 129.518 147.835 130.329 147.024C131.139 146.213 131.779 145.275 132.249 144.208C132.718 143.099 132.953 141.925 132.953 140.688C132.953 139.451 132.718 138.299 132.249 137.232C131.779 136.123 131.139 135.163 130.329 134.352C129.518 133.541 128.558 132.901 127.449 132.432C126.382 131.963 125.23 131.728 123.993 131.728C122.755 131.728 121.582 131.963 120.473 132.432C119.406 132.901 118.467 133.541 117.657 134.352C116.846 135.163 116.206 136.123 115.737 137.232C115.267 138.299 115.033 139.451 115.033 140.688ZM148.968 140.688C148.968 137.616 149.544 134.715 150.696 131.984C151.89 129.253 153.49 126.885 155.496 124.88C157.544 122.832 159.933 121.232 162.664 120.08C165.394 118.885 168.296 118.288 171.368 118.288C174.44 118.288 177.341 118.885 180.072 120.08C182.802 121.232 185.17 122.832 187.176 124.88C189.224 126.885 190.824 129.253 191.976 131.984C193.17 134.715 193.768 137.616 193.768 140.688C193.768 143.76 193.17 146.661 191.976 149.392C190.824 152.123 189.224 154.512 187.176 156.56C185.17 158.565 182.802 160.165 180.072 161.36C177.341 162.512 174.44 163.088 171.368 163.088C168.296 163.088 165.394 162.512 162.664 161.36C159.933 160.165 157.544 158.565 155.496 156.56C153.49 154.512 151.89 152.123 150.696 149.392C149.544 146.661 148.968 143.76 148.968 140.688ZM162.408 140.688C162.408 141.925 162.642 143.099 163.112 144.208C163.581 145.275 164.221 146.213 165.032 147.024C165.842 147.835 166.781 148.475 167.848 148.944C168.957 149.413 170.13 149.648 171.368 149.648C172.605 149.648 173.757 149.413 174.824 148.944C175.933 148.475 176.893 147.835 177.704 147.024C178.514 146.213 179.154 145.275 179.624 144.208C180.093 143.099 180.328 141.925 180.328 140.688C180.328 139.451 180.093 138.299 179.624 137.232C179.154 136.123 178.514 135.163 177.704 134.352C176.893 133.541 175.933 132.901 174.824 132.432C173.757 131.963 172.605 131.728 171.368 131.728C170.13 131.728 168.957 131.963 167.848 132.432C166.781 132.901 165.842 133.541 165.032 134.352C164.221 135.163 163.581 136.123 163.112 137.232C162.642 138.299 162.408 139.451 162.408 140.688ZM197.303 119.312H211.127V129.168L219.191 119.312H235.895L220.855 138.832L236.663 162H220.215L211.127 148.816V162H197.303V119.312ZM237.928 119.312H252.392V162H237.928V119.312ZM256.865 119.312H282.017V130.512H270.497V135.248H281.825V145.872H270.497V150.8H282.465V162H256.865V119.312ZM299.115 119.312H310.379L321.515 135.696L332.587 119.312H343.851V162H330.219V146.64L321.515 159.44L312.747 146.64V162H299.115V119.312ZM360.975 119.312H371.215L387.407 162H373.967L372.559 158.16H359.631L358.223 162H344.782L360.975 119.312ZM368.975 148.752L366.095 141.264L363.215 148.752H368.975ZM393.997 130.512H386.125V119.312H415.949V130.512H408.077V162H393.997V130.512ZM418.178 119.312H443.33V130.512H431.81V135.248H443.138V145.872H431.81V150.8H443.778V162H418.178V119.312Z" fill="#333333"/>
<line x1="298" y1="171.5" x2="446" y2="171.5" stroke="#333333" stroke-width="5"/>
</svg>
