<svg width="645" height="205" viewBox="0 0 645 205" fill="none" xmlns="http://www.w3.org/2000/svg">
<path fill-rule="evenodd" clip-rule="evenodd" d="M104.322 0.0917332C102.889 0.0307842 101.448 0 100 0C44.7715 0 0 44.7715 0 100C0 155.228 44.7715 200 100 200C155.228 200 200 155.228 200 100C200 93.1765 199.317 86.5126 198.014 80.073C182.212 85.1989 173.5 81.1695 173.5 70C155.1 72.4 139.667 63.3333 141 54C133 58 124.4 61.1 114 51.5C103.6 41.9 109.667 25.3333 114 19C102.684 19.4041 101.1 10.9786 104.322 0.0917332Z" fill="white"/>
<path d="M188.029 41.9298C194.913 38.1541 188.239 33.07 184.042 31C181.243 31.828 176.612 34.3783 180.474 37.9553C185.301 42.4266 179.425 46.6495 188.029 41.9298Z" fill="white"/>
<path d="M198.014 18.4036C195.933 12.8458 191.408 17.2893 189.406 20.2058C189.723 22.3887 190.245 23.6264 194.224 23.6264C196.861 23.6265 200.615 25.3509 198.014 18.4036Z" fill="white"/>
<path d="M180.916 19.5792C175.233 21.2879 179.367 26.0966 182.145 28.2873C184.344 28.1154 188.336 30.0692 188.599 26.0991C188.773 23.4676 188.02 17.4434 180.916 19.5792Z" fill="white"/>
<path d="M236.24 169.4C229.893 169.4 224.373 168.253 219.68 165.96C214.987 163.613 211.387 160.307 208.88 156.04C206.373 151.773 205.12 146.813 205.12 141.16C205.12 133.32 206.587 126.36 209.52 120.28C212.507 114.2 216.533 109.507 221.6 106.2C226.667 102.84 232.293 101.16 238.48 101.16C244.24 101.16 248.613 102.653 251.6 105.64C254.587 108.573 256.08 112.467 256.08 117.32C256.08 120.573 255.493 123.187 254.32 125.16C253.2 127.133 251.573 128.12 249.44 128.12C247.947 128.12 246.773 127.773 245.92 127.08C245.067 126.387 244.64 125.373 244.64 124.04C244.64 123.56 244.747 122.68 244.96 121.4C245.28 119.8 245.44 118.52 245.44 117.56C245.44 112.707 242.853 110.28 237.68 110.28C234.16 110.28 230.8 111.427 227.6 113.72C224.4 116.013 221.813 119.4 219.84 123.88C217.867 128.307 216.88 133.587 216.88 139.72C216.88 146.12 218.667 151.08 222.24 154.6C225.813 158.067 231.093 159.8 238.08 159.8C241.547 159.8 245.04 159.373 248.56 158.52C252.133 157.613 256.08 156.253 260.4 154.44C261.2 154.12 261.867 153.96 262.4 153.96C263.253 153.96 263.893 154.28 264.32 154.92C264.747 155.56 264.96 156.387 264.96 157.4C264.96 160.653 263.2 163.053 259.68 164.6C255.893 166.253 251.947 167.48 247.84 168.28C243.787 169.027 239.92 169.4 236.24 169.4ZM298.703 144.44C299.396 144.44 299.929 144.787 300.303 145.48C300.676 146.173 300.863 147.053 300.863 148.12C300.863 150.68 300.089 152.2 298.543 152.68C295.343 153.8 291.823 154.44 287.983 154.6C286.969 159.08 284.969 162.68 281.983 165.4C278.996 168.067 275.609 169.4 271.823 169.4C268.623 169.4 265.876 168.627 263.583 167.08C261.343 165.533 259.636 163.48 258.463 160.92C257.289 158.36 256.702 155.587 256.702 152.6C256.702 148.547 257.476 144.947 259.023 141.8C260.569 138.6 262.703 136.12 265.423 134.36C268.143 132.547 271.156 131.64 274.463 131.64C278.516 131.64 281.769 133.053 284.223 135.88C286.729 138.653 288.196 142.093 288.623 146.2C291.129 146.04 294.116 145.507 297.583 144.6C298.009 144.493 298.383 144.44 298.703 144.44ZM272.463 160.92C274.169 160.92 275.636 160.227 276.863 158.84C278.143 157.453 278.996 155.453 279.423 152.84C277.769 151.72 276.489 150.253 275.583 148.44C274.729 146.627 274.303 144.707 274.303 142.68C274.303 141.827 274.383 140.973 274.543 140.12H274.143C272.009 140.12 270.223 141.16 268.783 143.24C267.396 145.267 266.703 148.147 266.703 151.88C266.703 154.813 267.263 157.053 268.383 158.6C269.556 160.147 270.916 160.92 272.463 160.92ZM334.796 144.44C335.49 144.44 336.023 144.787 336.396 145.48C336.77 146.173 336.956 147.053 336.956 148.12C336.956 150.68 336.183 152.2 334.636 152.68C331.436 153.8 327.916 154.44 324.076 154.6C323.063 159.08 321.063 162.68 318.076 165.4C315.09 168.067 311.703 169.4 307.916 169.4C304.716 169.4 301.97 168.627 299.676 167.08C297.436 165.533 295.73 163.48 294.556 160.92C293.383 158.36 292.796 155.587 292.796 152.6C292.796 148.547 293.57 144.947 295.116 141.8C296.663 138.6 298.796 136.12 301.516 134.36C304.236 132.547 307.25 131.64 310.556 131.64C314.61 131.64 317.863 133.053 320.316 135.88C322.823 138.653 324.29 142.093 324.716 146.2C327.223 146.04 330.21 145.507 333.676 144.6C334.103 144.493 334.476 144.44 334.796 144.44ZM308.556 160.92C310.263 160.92 311.73 160.227 312.956 158.84C314.236 157.453 315.09 155.453 315.516 152.84C313.863 151.72 312.583 150.253 311.676 148.44C310.823 146.627 310.396 144.707 310.396 142.68C310.396 141.827 310.476 140.973 310.636 140.12H310.236C308.103 140.12 306.316 141.16 304.876 143.24C303.49 145.267 302.796 148.147 302.796 151.88C302.796 154.813 303.356 157.053 304.476 158.6C305.65 160.147 307.01 160.92 308.556 160.92ZM376.33 151.16C377.023 151.16 377.557 151.48 377.93 152.12C378.357 152.76 378.57 153.64 378.57 154.76C378.57 156.893 378.063 158.547 377.05 159.72C374.65 162.653 372.223 165 369.77 166.76C367.317 168.52 364.41 169.4 361.05 169.4C356.943 169.4 353.637 168.227 351.13 165.88C348.623 163.533 347.37 160.413 347.37 156.52C347.37 154.44 348.437 152.947 350.57 152.04C352.917 151.027 354.597 149.96 355.61 148.84C356.623 147.667 357.13 146.253 357.13 144.6C357.13 143.64 356.917 142.92 356.49 142.44C356.117 141.96 355.637 141.72 355.05 141.72C353.61 141.72 352.01 142.76 350.25 144.84C348.543 146.92 346.943 149.613 345.45 152.92C343.957 156.173 342.783 159.533 341.93 163C341.343 165.507 340.65 167.213 339.85 168.12C339.103 168.973 337.903 169.4 336.25 169.4C334.597 169.4 333.37 168.813 332.57 167.64C331.823 166.413 331.317 164.547 331.05 162.04C330.783 159.533 330.65 155.853 330.65 151C330.65 142.787 331.477 134.227 333.13 125.32C334.837 116.413 337.317 108.947 340.57 102.92C343.877 96.84 347.823 93.8 352.41 93.8C354.863 93.8 356.837 94.8667 358.33 97C359.877 99.08 360.65 101.8 360.65 105.16C360.65 110.547 359.077 116.147 355.93 121.96C352.783 127.72 347.663 134.467 340.57 142.2C340.41 144.973 340.33 147.827 340.33 150.76C342.89 144.093 345.823 139.267 349.13 136.28C352.437 133.24 355.53 131.72 358.41 131.72C361.077 131.72 363.21 132.627 364.81 134.44C366.463 136.253 367.29 138.493 367.29 141.16C367.29 144.093 366.543 146.787 365.05 149.24C363.557 151.693 360.997 153.88 357.37 155.8C357.583 157.24 358.223 158.413 359.29 159.32C360.41 160.173 361.743 160.6 363.29 160.6C364.943 160.6 366.543 159.96 368.09 158.68C369.637 157.4 371.663 155.267 374.17 152.28C374.81 151.533 375.53 151.16 376.33 151.16ZM350.73 101.72C349.77 101.72 348.703 103.107 347.53 105.88C346.357 108.6 345.21 112.307 344.09 117C343.023 121.64 342.143 126.707 341.45 132.2C344.757 128.307 347.477 124.067 349.61 119.48C351.797 114.893 352.89 110.733 352.89 107C352.89 105.293 352.703 103.987 352.33 103.08C351.957 102.173 351.423 101.72 350.73 101.72ZM382.601 126.44C380.361 126.44 378.681 125.933 377.561 124.92C376.441 123.853 375.881 122.387 375.881 120.52C375.881 118.653 376.601 117.107 378.041 115.88C379.535 114.6 381.375 113.96 383.561 113.96C385.535 113.96 387.135 114.44 388.361 115.4C389.588 116.36 390.201 117.72 390.201 119.48C390.201 121.613 389.508 123.32 388.121 124.6C386.735 125.827 384.895 126.44 382.601 126.44ZM381.961 169.4C378.495 169.4 375.961 168.173 374.361 165.72C372.815 163.267 372.041 160.013 372.041 155.96C372.041 153.56 372.335 150.493 372.921 146.76C373.561 142.973 374.361 139.453 375.321 136.2C375.801 134.493 376.441 133.32 377.241 132.68C378.041 132.04 379.321 131.72 381.081 131.72C383.801 131.72 385.161 132.627 385.161 134.44C385.161 135.773 384.655 138.867 383.641 143.72C382.361 149.587 381.721 153.56 381.721 155.64C381.721 157.24 381.935 158.467 382.361 159.32C382.788 160.173 383.508 160.6 384.521 160.6C385.481 160.6 386.681 159.933 388.121 158.6C389.561 157.267 391.481 155.16 393.881 152.28C394.521 151.533 395.241 151.16 396.041 151.16C396.735 151.16 397.268 151.48 397.641 152.12C398.068 152.76 398.281 153.64 398.281 154.76C398.281 156.893 397.775 158.547 396.761 159.72C391.481 166.173 386.548 169.4 381.961 169.4ZM420.449 153.56C421.142 153.56 421.675 153.88 422.049 154.52C422.475 155.16 422.689 156.04 422.689 157.16C422.689 159.08 422.235 160.733 421.329 162.12C419.835 164.413 417.862 166.2 415.409 167.48C413.009 168.76 410.129 169.4 406.769 169.4C401.649 169.4 397.675 167.88 394.849 164.84C392.022 161.747 390.609 157.587 390.609 152.36C390.609 148.68 391.382 145.267 392.929 142.12C394.475 138.92 396.609 136.387 399.329 134.52C402.102 132.653 405.222 131.72 408.689 131.72C411.782 131.72 414.262 132.653 416.129 134.52C417.995 136.333 418.929 138.813 418.929 141.96C418.929 145.64 417.595 148.813 414.929 151.48C412.315 154.093 407.835 156.173 401.489 157.72C402.769 160.173 404.929 161.4 407.969 161.4C410.155 161.4 411.942 160.893 413.329 159.88C414.769 158.867 416.422 157.16 418.289 154.76C418.929 153.96 419.649 153.56 420.449 153.56ZM407.329 139.56C405.355 139.56 403.675 140.707 402.289 143C400.955 145.293 400.289 148.067 400.289 151.32V151.48C403.435 150.733 405.915 149.613 407.729 148.12C409.542 146.627 410.449 144.893 410.449 142.92C410.449 141.907 410.155 141.107 409.569 140.52C409.035 139.88 408.289 139.56 407.329 139.56ZM460.591 169.4C458.618 169.4 457.205 168.973 456.351 168.12C455.498 167.213 455.071 165.533 455.071 163.08C455.071 161.427 455.231 159.32 455.551 156.76C455.925 154.147 456.511 150.573 457.311 146.04C458.698 137.667 459.791 130.413 460.591 124.28C461.071 120.44 461.311 117.24 461.311 114.68C461.311 112.28 460.431 111.08 458.671 111.08C457.285 111.08 455.605 111.8 453.631 113.24C451.711 114.627 449.578 116.867 447.231 119.96C446.485 120.973 445.658 121.48 444.751 121.48C444.005 121.48 443.338 121.133 442.751 120.44C442.218 119.693 441.951 118.867 441.951 117.96C441.951 117.107 442.111 116.253 442.431 115.4C442.805 114.493 443.391 113.48 444.191 112.36C446.751 108.787 449.605 106.04 452.751 104.12C455.898 102.147 459.045 101.16 462.191 101.16C465.125 101.16 467.365 102.093 468.911 103.96C470.511 105.827 471.311 108.547 471.311 112.12C471.311 113.56 471.178 115.267 470.911 117.24C470.645 119.16 470.405 120.733 470.191 121.96C469.978 123.187 469.818 124.04 469.711 124.52C472.751 115.827 476.165 109.773 479.951 106.36C483.738 102.893 487.898 101.16 492.431 101.16C495.898 101.16 498.618 102.387 500.591 104.84C502.618 107.293 503.631 110.76 503.631 115.24C503.631 117 503.391 119.187 502.911 121.8C505.578 114.44 508.698 109.16 512.271 105.96C515.845 102.76 519.951 101.16 524.591 101.16C528.325 101.16 531.178 102.36 533.151 104.76C535.178 107.16 536.191 110.52 536.191 114.84C536.191 117.187 535.845 120.04 535.151 123.4L530.271 146.28C529.738 148.947 529.471 151.24 529.471 153.16C529.471 155.4 529.978 157.08 530.991 158.2C532.058 159.32 533.525 159.88 535.391 159.88C537.151 159.88 538.858 159.293 540.511 158.12C542.218 156.947 544.218 155 546.511 152.28C547.151 151.533 547.871 151.16 548.671 151.16C549.365 151.16 549.898 151.48 550.271 152.12C550.698 152.76 550.911 153.64 550.911 154.76C550.911 156.84 550.405 158.493 549.391 159.72C546.618 163.08 543.871 165.533 541.151 167.08C538.431 168.627 535.578 169.4 532.591 169.4C528.058 169.4 524.511 168.067 521.951 165.4C519.391 162.68 518.111 159.053 518.111 154.52C518.111 151.373 518.751 146.813 520.031 140.84L523.231 126.2C523.338 125.72 523.525 124.867 523.791 123.64C524.058 122.413 524.271 121.267 524.431 120.2C524.591 119.08 524.671 117.987 524.671 116.92C524.671 115.053 524.298 113.667 523.551 112.76C522.858 111.8 521.845 111.32 520.511 111.32C518.005 111.32 515.365 112.947 512.591 116.2C509.871 119.4 507.258 124.733 504.751 132.2C502.298 139.667 500.298 149.373 498.751 161.32C498.378 164.52 497.711 166.68 496.751 167.8C495.845 168.867 494.351 169.4 492.271 169.4C490.458 169.4 489.125 168.973 488.271 168.12C487.471 167.267 487.071 165.667 487.071 163.32C487.071 161.133 487.365 158.28 487.951 154.76C488.538 151.187 489.285 147 490.191 142.2C492.645 129.293 493.871 120.973 493.871 117.24C493.871 115.213 493.471 113.72 492.671 112.76C491.925 111.8 490.778 111.32 489.231 111.32C486.618 111.32 483.925 112.813 481.151 115.8C478.378 118.733 475.658 123.987 472.991 131.56C470.378 139.08 468.191 149.267 466.431 162.12C466.058 164.84 465.498 166.733 464.751 167.8C464.058 168.867 462.671 169.4 460.591 169.4ZM554.305 169.4C550.998 169.4 548.358 168.2 546.385 165.8C544.412 163.4 543.425 160.253 543.425 156.36C543.425 152.093 544.412 148.067 546.385 144.28C548.358 140.44 550.972 137.373 554.225 135.08C557.532 132.733 561.025 131.56 564.705 131.56C565.878 131.56 566.652 131.8 567.025 132.28C567.452 132.707 567.798 133.507 568.065 134.68C569.185 134.467 570.358 134.36 571.585 134.36C574.198 134.36 575.505 135.293 575.505 137.16C575.505 138.28 575.105 140.947 574.305 145.16C573.078 151.293 572.465 155.56 572.465 157.96C572.465 158.76 572.652 159.4 573.025 159.88C573.452 160.36 573.985 160.6 574.625 160.6C575.638 160.6 576.865 159.96 578.305 158.68C579.745 157.347 581.692 155.213 584.145 152.28C584.785 151.533 585.505 151.16 586.305 151.16C586.998 151.16 587.532 151.48 587.905 152.12C588.332 152.76 588.545 153.64 588.545 154.76C588.545 156.893 588.038 158.547 587.025 159.72C584.838 162.44 582.518 164.733 580.065 166.6C577.612 168.467 575.238 169.4 572.945 169.4C571.185 169.4 569.558 168.813 568.065 167.64C566.625 166.413 565.532 164.76 564.785 162.68C562.012 167.16 558.518 169.4 554.305 169.4ZM557.185 161.32C558.358 161.32 559.478 160.627 560.545 159.24C561.612 157.853 562.385 156.013 562.865 153.72L565.825 139C563.585 139.053 561.505 139.907 559.585 141.56C557.718 143.16 556.225 145.293 555.105 147.96C553.985 150.627 553.425 153.453 553.425 156.44C553.425 158.093 553.745 159.32 554.385 160.12C555.078 160.92 556.012 161.32 557.185 161.32ZM617.723 151.16C618.416 151.16 618.95 151.48 619.323 152.12C619.75 152.76 619.963 153.64 619.963 154.76C619.963 156.893 619.456 158.547 618.443 159.72C616.15 162.547 613.643 164.867 610.923 166.68C608.203 168.493 605.083 169.4 601.563 169.4C590.683 169.4 585.243 161.747 585.243 146.44C585.243 144.093 585.323 141.72 585.483 139.32H582.363C580.763 139.32 579.67 139.027 579.083 138.44C578.55 137.853 578.283 136.92 578.283 135.64C578.283 132.653 579.483 131.16 581.883 131.16H586.443C587.35 125.293 588.736 119.933 590.603 115.08C592.47 110.227 594.71 106.36 597.323 103.48C599.99 100.6 602.843 99.16 605.883 99.16C608.123 99.16 609.883 100.147 611.163 102.12C612.443 104.093 613.083 106.573 613.083 109.56C613.083 117.827 609.616 125.027 602.683 131.16H611.643C612.496 131.16 613.11 131.347 613.483 131.72C613.856 132.093 614.043 132.787 614.043 133.8C614.043 137.48 611.03 139.32 605.003 139.32H595.243C595.136 141.987 595.083 144.067 595.083 145.56C595.083 151.107 595.723 155 597.003 157.24C598.336 159.48 600.416 160.6 603.243 160.6C605.536 160.6 607.563 159.907 609.323 158.52C611.083 157.133 613.163 155.053 615.563 152.28C616.203 151.533 616.923 151.16 617.723 151.16ZM603.723 106.84C602.923 106.84 602.016 107.853 601.003 109.88C600.043 111.853 599.11 114.627 598.203 118.2C597.35 121.72 596.63 125.64 596.043 129.96C599.19 127.24 601.536 124.2 603.083 120.84C604.683 117.427 605.483 114.333 605.483 111.56C605.483 108.413 604.896 106.84 603.723 106.84ZM642.089 153.56C642.783 153.56 643.316 153.88 643.689 154.52C644.116 155.16 644.329 156.04 644.329 157.16C644.329 159.08 643.876 160.733 642.969 162.12C641.476 164.413 639.503 166.2 637.049 167.48C634.649 168.76 631.769 169.4 628.409 169.4C623.289 169.4 619.316 167.88 616.489 164.84C613.663 161.747 612.249 157.587 612.249 152.36C612.249 148.68 613.023 145.267 614.569 142.12C616.116 138.92 618.249 136.387 620.969 134.52C623.743 132.653 626.863 131.72 630.329 131.72C633.423 131.72 635.903 132.653 637.769 134.52C639.636 136.333 640.569 138.813 640.569 141.96C640.569 145.64 639.236 148.813 636.569 151.48C633.956 154.093 629.476 156.173 623.129 157.72C624.409 160.173 626.569 161.4 629.609 161.4C631.796 161.4 633.583 160.893 634.969 159.88C636.409 158.867 638.063 157.16 639.929 154.76C640.569 153.96 641.289 153.56 642.089 153.56ZM628.969 139.56C626.996 139.56 625.316 140.707 623.929 143C622.596 145.293 621.929 148.067 621.929 151.32V151.48C625.076 150.733 627.556 149.613 629.369 148.12C631.183 146.627 632.089 144.893 632.089 142.92C632.089 141.907 631.796 141.107 631.209 140.52C630.676 139.88 629.929 139.56 628.969 139.56Z" fill="white"/>
</svg>
