<svg width="419" height="200" viewBox="0 0 419 200" fill="none" xmlns="http://www.w3.org/2000/svg">
<path fill-rule="evenodd" clip-rule="evenodd" d="M104.322 0.0917332C102.889 0.0307842 101.448 0 100 0C44.7715 0 0 44.7715 0 100C0 155.228 44.7715 200 100 200C155.228 200 200 155.228 200 100C200 93.1765 199.317 86.5126 198.014 80.073C182.212 85.1989 173.5 81.1695 173.5 70C155.1 72.4 139.667 63.3333 141 54C133 58 124.4 61.1 114 51.5C103.6 41.9 109.667 25.3333 114 19C102.684 19.4041 101.1 10.9786 104.322 0.0917332Z" fill="#C5A26E"/>
<path d="M188.029 41.9298C194.913 38.1541 188.239 33.07 184.042 31C181.243 31.828 176.612 34.3783 180.474 37.9553C185.301 42.4266 179.425 46.6495 188.029 41.9298Z" fill="#C5A26E"/>
<path d="M198.014 18.4036C195.933 12.8458 191.408 17.2893 189.406 20.2058C189.723 22.3887 190.245 23.6264 194.224 23.6264C196.861 23.6265 200.615 25.3509 198.014 18.4036Z" fill="#C5A26E"/>
<path d="M180.916 19.5792C175.233 21.2879 179.367 26.0966 182.145 28.2873C184.344 28.1154 188.336 30.0692 188.599 26.0991C188.773 23.4676 188.02 17.4434 180.916 19.5792Z" fill="#C5A26E"/>
<path d="M91.992 159.32C86.9147 159.32 82.4987 158.403 78.744 156.568C74.9893 154.691 72.1093 152.045 70.104 148.632C68.0987 145.219 67.096 141.251 67.096 136.728C67.096 130.456 68.2693 124.888 70.616 120.024C73.0053 115.16 76.2267 111.405 80.28 108.76C84.3333 106.072 88.8347 104.728 93.784 104.728C98.392 104.728 101.891 105.923 104.28 108.312C106.669 110.659 107.864 113.773 107.864 117.656C107.864 120.259 107.395 122.349 106.456 123.928C105.56 125.507 104.259 126.296 102.552 126.296C101.357 126.296 100.419 126.019 99.736 125.464C99.0533 124.909 98.712 124.099 98.712 123.032C98.712 122.648 98.7973 121.944 98.968 120.92C99.224 119.64 99.352 118.616 99.352 117.848C99.352 113.965 97.2827 112.024 93.144 112.024C90.328 112.024 87.64 112.941 85.08 114.776C82.52 116.611 80.4507 119.32 78.872 122.904C77.2933 126.445 76.504 130.669 76.504 135.576C76.504 140.696 77.9333 144.664 80.792 147.48C83.6507 150.253 87.8747 151.64 93.464 151.64C96.2373 151.64 99.032 151.299 101.848 150.616C104.707 149.891 107.864 148.803 111.32 147.352C111.96 147.096 112.493 146.968 112.92 146.968C113.603 146.968 114.115 147.224 114.456 147.736C114.797 148.248 114.968 148.909 114.968 149.72C114.968 152.323 113.56 154.243 110.744 155.48C107.715 156.803 104.557 157.784 101.272 158.424C98.0293 159.021 94.936 159.32 91.992 159.32ZM141.962 139.352C142.517 139.352 142.943 139.629 143.242 140.184C143.541 140.739 143.69 141.443 143.69 142.296C143.69 144.344 143.071 145.56 141.834 145.944C139.274 146.84 136.458 147.352 133.386 147.48C132.575 151.064 130.975 153.944 128.586 156.12C126.197 158.253 123.487 159.32 120.458 159.32C117.898 159.32 115.701 158.701 113.866 157.464C112.074 156.227 110.709 154.584 109.77 152.536C108.831 150.488 108.362 148.269 108.362 145.88C108.362 142.637 108.981 139.757 110.218 137.24C111.455 134.68 113.162 132.696 115.338 131.288C117.514 129.837 119.925 129.112 122.57 129.112C125.813 129.112 128.415 130.243 130.378 132.504C132.383 134.723 133.557 137.475 133.898 140.76C135.903 140.632 138.293 140.205 141.066 139.48C141.407 139.395 141.706 139.352 141.962 139.352ZM120.97 152.536C122.335 152.536 123.509 151.981 124.49 150.872C125.514 149.763 126.197 148.163 126.538 146.072C125.215 145.176 124.191 144.003 123.466 142.552C122.783 141.101 122.442 139.565 122.442 137.944C122.442 137.261 122.506 136.579 122.634 135.896H122.314C120.607 135.896 119.178 136.728 118.026 138.392C116.917 140.013 116.362 142.317 116.362 145.304C116.362 147.651 116.81 149.443 117.706 150.68C118.645 151.917 119.733 152.536 120.97 152.536ZM170.837 139.352C171.392 139.352 171.818 139.629 172.117 140.184C172.416 140.739 172.565 141.443 172.565 142.296C172.565 144.344 171.946 145.56 170.709 145.944C168.149 146.84 165.333 147.352 162.261 147.48C161.45 151.064 159.85 153.944 157.461 156.12C155.072 158.253 152.362 159.32 149.333 159.32C146.773 159.32 144.576 158.701 142.741 157.464C140.949 156.227 139.584 154.584 138.645 152.536C137.706 150.488 137.237 148.269 137.237 145.88C137.237 142.637 137.856 139.757 139.093 137.24C140.33 134.68 142.037 132.696 144.213 131.288C146.389 129.837 148.8 129.112 151.445 129.112C154.688 129.112 157.29 130.243 159.253 132.504C161.258 134.723 162.432 137.475 162.773 140.76C164.778 140.632 167.168 140.205 169.941 139.48C170.282 139.395 170.581 139.352 170.837 139.352ZM149.845 152.536C151.21 152.536 152.384 151.981 153.365 150.872C154.389 149.763 155.072 148.163 155.413 146.072C154.09 145.176 153.066 144.003 152.341 142.552C151.658 141.101 151.317 139.565 151.317 137.944C151.317 137.261 151.381 136.579 151.509 135.896H151.189C149.482 135.896 148.053 136.728 146.901 138.392C145.792 140.013 145.237 142.317 145.237 145.304C145.237 147.651 145.685 149.443 146.581 150.68C147.52 151.917 148.608 152.536 149.845 152.536ZM204.064 144.728C204.619 144.728 205.045 144.984 205.344 145.496C205.685 146.008 205.856 146.712 205.856 147.608C205.856 149.315 205.451 150.637 204.64 151.576C202.72 153.923 200.779 155.8 198.816 157.208C196.853 158.616 194.528 159.32 191.84 159.32C188.555 159.32 185.909 158.381 183.904 156.504C181.899 154.627 180.896 152.131 180.896 149.016C180.896 147.352 181.749 146.157 183.456 145.432C185.333 144.621 186.677 143.768 187.488 142.872C188.299 141.933 188.704 140.803 188.704 139.48C188.704 138.712 188.533 138.136 188.192 137.752C187.893 137.368 187.509 137.176 187.04 137.176C185.888 137.176 184.608 138.008 183.2 139.672C181.835 141.336 180.555 143.491 179.36 146.136C178.165 148.739 177.227 151.427 176.544 154.2C176.075 156.205 175.52 157.571 174.88 158.296C174.283 158.979 173.323 159.32 172 159.32C170.677 159.32 169.696 158.851 169.056 157.912C168.459 156.931 168.053 155.437 167.84 153.432C167.627 151.427 167.52 148.483 167.52 144.6C167.52 138.029 168.181 131.181 169.504 124.056C170.869 116.931 172.853 110.957 175.456 106.136C178.101 101.272 181.259 98.84 184.928 98.84C186.891 98.84 188.469 99.6933 189.664 101.4C190.901 103.064 191.52 105.24 191.52 107.928C191.52 112.237 190.261 116.717 187.744 121.368C185.227 125.976 181.131 131.373 175.456 137.56C175.328 139.779 175.264 142.061 175.264 144.408C177.312 139.075 179.659 135.213 182.304 132.824C184.949 130.392 187.424 129.176 189.728 129.176C191.861 129.176 193.568 129.901 194.848 131.352C196.171 132.803 196.832 134.595 196.832 136.728C196.832 139.075 196.235 141.229 195.04 143.192C193.845 145.155 191.797 146.904 188.896 148.44C189.067 149.592 189.579 150.531 190.432 151.256C191.328 151.939 192.395 152.28 193.632 152.28C194.955 152.28 196.235 151.768 197.472 150.744C198.709 149.72 200.331 148.013 202.336 145.624C202.848 145.027 203.424 144.728 204.064 144.728ZM183.584 105.176C182.816 105.176 181.963 106.285 181.024 108.504C180.085 110.68 179.168 113.645 178.272 117.4C177.419 121.112 176.715 125.165 176.16 129.56C178.805 126.445 180.981 123.053 182.688 119.384C184.437 115.715 185.312 112.387 185.312 109.4C185.312 108.035 185.163 106.989 184.864 106.264C184.565 105.539 184.139 105.176 183.584 105.176ZM209.081 124.952C207.289 124.952 205.945 124.547 205.049 123.736C204.153 122.883 203.705 121.709 203.705 120.216C203.705 118.723 204.281 117.485 205.433 116.504C206.628 115.48 208.1 114.968 209.849 114.968C211.428 114.968 212.708 115.352 213.689 116.12C214.67 116.888 215.161 117.976 215.161 119.384C215.161 121.091 214.606 122.456 213.497 123.48C212.388 124.461 210.916 124.952 209.081 124.952ZM208.569 159.32C205.796 159.32 203.769 158.339 202.489 156.376C201.252 154.413 200.633 151.811 200.633 148.568C200.633 146.648 200.868 144.195 201.337 141.208C201.849 138.179 202.489 135.363 203.257 132.76C203.641 131.395 204.153 130.456 204.793 129.944C205.433 129.432 206.457 129.176 207.865 129.176C210.041 129.176 211.129 129.901 211.129 131.352C211.129 132.419 210.724 134.893 209.913 138.776C208.889 143.469 208.377 146.648 208.377 148.312C208.377 149.592 208.548 150.573 208.889 151.256C209.23 151.939 209.806 152.28 210.617 152.28C211.385 152.28 212.345 151.747 213.497 150.68C214.649 149.613 216.185 147.928 218.105 145.624C218.617 145.027 219.193 144.728 219.833 144.728C220.388 144.728 220.814 144.984 221.113 145.496C221.454 146.008 221.625 146.712 221.625 147.608C221.625 149.315 221.22 150.637 220.409 151.576C216.185 156.739 212.238 159.32 208.569 159.32ZM239.359 146.648C239.914 146.648 240.34 146.904 240.639 147.416C240.98 147.928 241.151 148.632 241.151 149.528C241.151 151.064 240.788 152.387 240.063 153.496C238.868 155.331 237.29 156.76 235.327 157.784C233.407 158.808 231.103 159.32 228.415 159.32C224.319 159.32 221.14 158.104 218.879 155.672C216.618 153.197 215.487 149.869 215.487 145.688C215.487 142.744 216.106 140.013 217.343 137.496C218.58 134.936 220.287 132.909 222.463 131.416C224.682 129.923 227.178 129.176 229.951 129.176C232.426 129.176 234.41 129.923 235.903 131.416C237.396 132.867 238.143 134.851 238.143 137.368C238.143 140.312 237.076 142.851 234.943 144.984C232.852 147.075 229.268 148.739 224.191 149.976C225.215 151.939 226.943 152.92 229.375 152.92C231.124 152.92 232.554 152.515 233.663 151.704C234.815 150.893 236.138 149.528 237.631 147.608C238.143 146.968 238.719 146.648 239.359 146.648ZM228.863 135.448C227.284 135.448 225.94 136.365 224.831 138.2C223.764 140.035 223.231 142.253 223.231 144.856V144.984C225.748 144.387 227.732 143.491 229.183 142.296C230.634 141.101 231.359 139.715 231.359 138.136C231.359 137.325 231.124 136.685 230.655 136.216C230.228 135.704 229.631 135.448 228.863 135.448ZM271.473 159.32C269.894 159.32 268.764 158.979 268.081 158.296C267.398 157.571 267.057 156.227 267.057 154.264C267.057 152.941 267.185 151.256 267.441 149.208C267.74 147.117 268.209 144.259 268.849 140.632C269.958 133.933 270.833 128.131 271.473 123.224C271.857 120.152 272.049 117.592 272.049 115.544C272.049 113.624 271.345 112.664 269.937 112.664C268.828 112.664 267.484 113.24 265.905 114.392C264.369 115.501 262.662 117.293 260.785 119.768C260.188 120.579 259.526 120.984 258.801 120.984C258.204 120.984 257.67 120.707 257.201 120.152C256.774 119.555 256.561 118.893 256.561 118.168C256.561 117.485 256.689 116.803 256.945 116.12C257.244 115.395 257.713 114.584 258.353 113.688C260.401 110.829 262.684 108.632 265.201 107.096C267.718 105.517 270.236 104.728 272.753 104.728C275.1 104.728 276.892 105.475 278.129 106.968C279.409 108.461 280.049 110.637 280.049 113.496C280.049 114.648 279.942 116.013 279.729 117.592C279.516 119.128 279.324 120.387 279.153 121.368C278.982 122.349 278.854 123.032 278.769 123.416C281.201 116.461 283.932 111.619 286.961 108.888C289.99 106.115 293.318 104.728 296.945 104.728C299.718 104.728 301.894 105.709 303.473 107.672C305.094 109.635 305.905 112.408 305.905 115.992C305.905 117.4 305.713 119.149 305.329 121.24C307.462 115.352 309.958 111.128 312.817 108.568C315.676 106.008 318.961 104.728 322.673 104.728C325.66 104.728 327.942 105.688 329.521 107.608C331.142 109.528 331.953 112.216 331.953 115.672C331.953 117.549 331.676 119.832 331.121 122.52L327.217 140.824C326.79 142.957 326.577 144.792 326.577 146.328C326.577 148.12 326.982 149.464 327.793 150.36C328.646 151.256 329.82 151.704 331.313 151.704C332.721 151.704 334.086 151.235 335.409 150.296C336.774 149.357 338.374 147.8 340.209 145.624C340.721 145.027 341.297 144.728 341.937 144.728C342.492 144.728 342.918 144.984 343.217 145.496C343.558 146.008 343.729 146.712 343.729 147.608C343.729 149.272 343.324 150.595 342.513 151.576C340.294 154.264 338.097 156.227 335.921 157.464C333.745 158.701 331.462 159.32 329.073 159.32C325.446 159.32 322.609 158.253 320.561 156.12C318.513 153.944 317.489 151.043 317.489 147.416C317.489 144.899 318.001 141.251 319.025 136.472L321.585 124.76C321.67 124.376 321.82 123.693 322.033 122.712C322.246 121.731 322.417 120.813 322.545 119.96C322.673 119.064 322.737 118.189 322.737 117.336C322.737 115.843 322.438 114.733 321.841 114.008C321.286 113.24 320.476 112.856 319.409 112.856C317.404 112.856 315.292 114.157 313.073 116.76C310.897 119.32 308.806 123.587 306.801 129.56C304.838 135.533 303.238 143.299 302.001 152.856C301.702 155.416 301.169 157.144 300.401 158.04C299.676 158.893 298.481 159.32 296.817 159.32C295.366 159.32 294.3 158.979 293.617 158.296C292.977 157.613 292.657 156.333 292.657 154.456C292.657 152.707 292.892 150.424 293.361 147.608C293.83 144.749 294.428 141.4 295.153 137.56C297.116 127.235 298.097 120.579 298.097 117.592C298.097 115.971 297.777 114.776 297.137 114.008C296.54 113.24 295.622 112.856 294.385 112.856C292.294 112.856 290.14 114.051 287.921 116.44C285.702 118.787 283.526 122.989 281.393 129.048C279.302 135.064 277.553 143.213 276.145 153.496C275.846 155.672 275.398 157.187 274.801 158.04C274.246 158.893 273.137 159.32 271.473 159.32ZM346.444 159.32C343.799 159.32 341.687 158.36 340.108 156.44C338.529 154.52 337.74 152.003 337.74 148.888C337.74 145.475 338.529 142.253 340.108 139.224C341.687 136.152 343.777 133.699 346.38 131.864C349.025 129.987 351.82 129.048 354.764 129.048C355.703 129.048 356.321 129.24 356.62 129.624C356.961 129.965 357.239 130.605 357.452 131.544C358.348 131.373 359.287 131.288 360.268 131.288C362.359 131.288 363.404 132.035 363.404 133.528C363.404 134.424 363.084 136.557 362.444 139.928C361.463 144.835 360.972 148.248 360.972 150.168C360.972 150.808 361.121 151.32 361.42 151.704C361.761 152.088 362.188 152.28 362.7 152.28C363.511 152.28 364.492 151.768 365.644 150.744C366.796 149.677 368.353 147.971 370.316 145.624C370.828 145.027 371.404 144.728 372.044 144.728C372.599 144.728 373.025 144.984 373.324 145.496C373.665 146.008 373.836 146.712 373.836 147.608C373.836 149.315 373.431 150.637 372.62 151.576C370.871 153.752 369.015 155.587 367.052 157.08C365.089 158.573 363.191 159.32 361.356 159.32C359.948 159.32 358.647 158.851 357.452 157.912C356.3 156.931 355.425 155.608 354.828 153.944C352.609 157.528 349.815 159.32 346.444 159.32ZM348.748 152.856C349.687 152.856 350.583 152.301 351.436 151.192C352.289 150.083 352.908 148.611 353.292 146.776L355.66 135C353.868 135.043 352.204 135.725 350.668 137.048C349.175 138.328 347.98 140.035 347.084 142.168C346.188 144.301 345.74 146.563 345.74 148.952C345.74 150.275 345.996 151.256 346.508 151.896C347.063 152.536 347.809 152.856 348.748 152.856ZM397.179 144.728C397.733 144.728 398.16 144.984 398.458 145.496C398.8 146.008 398.971 146.712 398.971 147.608C398.971 149.315 398.565 150.637 397.755 151.576C395.92 153.837 393.915 155.693 391.739 157.144C389.563 158.595 387.067 159.32 384.251 159.32C375.547 159.32 371.195 153.197 371.195 140.952C371.195 139.075 371.259 137.176 371.387 135.256H368.891C367.611 135.256 366.736 135.021 366.267 134.552C365.84 134.083 365.627 133.336 365.627 132.312C365.627 129.923 366.587 128.728 368.507 128.728H372.155C372.88 124.035 373.989 119.747 375.483 115.864C376.976 111.981 378.768 108.888 380.859 106.584C382.992 104.28 385.275 103.128 387.707 103.128C389.499 103.128 390.907 103.917 391.931 105.496C392.955 107.075 393.467 109.059 393.467 111.448C393.467 118.061 390.693 123.821 385.147 128.728H392.315C392.997 128.728 393.488 128.877 393.787 129.176C394.085 129.475 394.235 130.029 394.235 130.84C394.235 133.784 391.824 135.256 387.003 135.256H379.195C379.109 137.389 379.067 139.053 379.067 140.248C379.067 144.685 379.579 147.8 380.603 149.592C381.669 151.384 383.333 152.28 385.595 152.28C387.429 152.28 389.051 151.725 390.459 150.616C391.867 149.507 393.531 147.843 395.451 145.624C395.963 145.027 396.539 144.728 397.179 144.728ZM385.979 109.272C385.339 109.272 384.613 110.083 383.803 111.704C383.035 113.283 382.288 115.501 381.562 118.36C380.88 121.176 380.304 124.312 379.835 127.768C382.352 125.592 384.229 123.16 385.467 120.472C386.747 117.741 387.387 115.267 387.387 113.048C387.387 110.531 386.917 109.272 385.979 109.272ZM416.672 146.648C417.226 146.648 417.653 146.904 417.952 147.416C418.293 147.928 418.464 148.632 418.464 149.528C418.464 151.064 418.101 152.387 417.376 153.496C416.181 155.331 414.602 156.76 412.64 157.784C410.72 158.808 408.416 159.32 405.728 159.32C401.632 159.32 398.453 158.104 396.192 155.672C393.93 153.197 392.799 149.869 392.799 145.688C392.799 142.744 393.418 140.013 394.656 137.496C395.893 134.936 397.6 132.909 399.776 131.416C401.994 129.923 404.49 129.176 407.264 129.176C409.738 129.176 411.722 129.923 413.216 131.416C414.709 132.867 415.456 134.851 415.456 137.368C415.456 140.312 414.389 142.851 412.256 144.984C410.165 147.075 406.581 148.739 401.504 149.976C402.528 151.939 404.256 152.92 406.688 152.92C408.437 152.92 409.866 152.515 410.976 151.704C412.128 150.893 413.45 149.528 414.944 147.608C415.456 146.968 416.032 146.648 416.672 146.648ZM406.176 135.448C404.597 135.448 403.253 136.365 402.144 138.2C401.077 140.035 400.544 142.253 400.544 144.856V144.984C403.061 144.387 405.045 143.491 406.496 142.296C407.946 141.101 408.672 139.715 408.672 138.136C408.672 137.325 408.437 136.685 407.968 136.216C407.541 135.704 406.944 135.448 406.176 135.448Z" fill="#333333"/>
</svg>
