<svg width="516" height="205" viewBox="0 0 516 205" fill="none" xmlns="http://www.w3.org/2000/svg">
<path fill-rule="evenodd" clip-rule="evenodd" d="M104.322 0.0917332C102.889 0.0307842 101.448 0 100 0C44.7715 0 0 44.7715 0 100C0 155.228 44.7715 200 100 200C155.228 200 200 155.228 200 100C200 93.1765 199.317 86.5126 198.014 80.073C182.212 85.1989 173.5 81.1695 173.5 70C155.1 72.4 139.667 63.3333 141 54C133 58 124.4 61.1 114 51.5C103.6 41.9 109.667 25.3333 114 19C102.684 19.4041 101.1 10.9786 104.322 0.0917332Z" fill="#C5A26E"/>
<path d="M188.029 41.9298C194.913 38.1541 188.239 33.07 184.042 31C181.243 31.828 176.612 34.3783 180.474 37.9553C185.301 42.4266 179.425 46.6495 188.029 41.9298Z" fill="#C5A26E"/>
<path d="M198.014 18.4036C195.933 12.8458 191.408 17.2893 189.406 20.2058C189.723 22.3887 190.245 23.6264 194.224 23.6264C196.861 23.6265 200.615 25.3509 198.014 18.4036Z" fill="#C5A26E"/>
<path d="M180.916 19.5792C175.233 21.2879 179.367 26.0966 182.145 28.2873C184.344 28.1154 188.336 30.0692 188.599 26.0991C188.773 23.4676 188.02 17.4434 180.916 19.5792Z" fill="#C5A26E"/>
<path d="M107.24 169.4C100.893 169.4 95.3733 168.253 90.68 165.96C85.9867 163.613 82.3867 160.307 79.88 156.04C77.3733 151.773 76.12 146.813 76.12 141.16C76.12 133.32 77.5867 126.36 80.52 120.28C83.5067 114.2 87.5333 109.507 92.6 106.2C97.6667 102.84 103.293 101.16 109.48 101.16C115.24 101.16 119.613 102.653 122.6 105.64C125.587 108.573 127.08 112.467 127.08 117.32C127.08 120.573 126.493 123.187 125.32 125.16C124.2 127.133 122.573 128.12 120.44 128.12C118.947 128.12 117.773 127.773 116.92 127.08C116.067 126.387 115.64 125.373 115.64 124.04C115.64 123.56 115.747 122.68 115.96 121.4C116.28 119.8 116.44 118.52 116.44 117.56C116.44 112.707 113.853 110.28 108.68 110.28C105.16 110.28 101.8 111.427 98.6 113.72C95.4 116.013 92.8133 119.4 90.84 123.88C88.8667 128.307 87.88 133.587 87.88 139.72C87.88 146.12 89.6667 151.08 93.24 154.6C96.8133 158.067 102.093 159.8 109.08 159.8C112.547 159.8 116.04 159.373 119.56 158.52C123.133 157.613 127.08 156.253 131.4 154.44C132.2 154.12 132.867 153.96 133.4 153.96C134.253 153.96 134.893 154.28 135.32 154.92C135.747 155.56 135.96 156.387 135.96 157.4C135.96 160.653 134.2 163.053 130.68 164.6C126.893 166.253 122.947 167.48 118.84 168.28C114.787 169.027 110.92 169.4 107.24 169.4ZM169.703 144.44C170.396 144.44 170.929 144.787 171.303 145.48C171.676 146.173 171.863 147.053 171.863 148.12C171.863 150.68 171.089 152.2 169.543 152.68C166.343 153.8 162.823 154.44 158.983 154.6C157.969 159.08 155.969 162.68 152.983 165.4C149.996 168.067 146.609 169.4 142.823 169.4C139.623 169.4 136.876 168.627 134.583 167.08C132.343 165.533 130.636 163.48 129.463 160.92C128.289 158.36 127.702 155.587 127.702 152.6C127.702 148.547 128.476 144.947 130.023 141.8C131.569 138.6 133.703 136.12 136.423 134.36C139.143 132.547 142.156 131.64 145.463 131.64C149.516 131.64 152.769 133.053 155.223 135.88C157.729 138.653 159.196 142.093 159.623 146.2C162.129 146.04 165.116 145.507 168.583 144.6C169.009 144.493 169.383 144.44 169.703 144.44ZM143.463 160.92C145.169 160.92 146.636 160.227 147.863 158.84C149.143 157.453 149.996 155.453 150.423 152.84C148.769 151.72 147.489 150.253 146.583 148.44C145.729 146.627 145.303 144.707 145.303 142.68C145.303 141.827 145.383 140.973 145.543 140.12H145.143C143.009 140.12 141.223 141.16 139.783 143.24C138.396 145.267 137.703 148.147 137.703 151.88C137.703 154.813 138.263 157.053 139.383 158.6C140.556 160.147 141.916 160.92 143.463 160.92ZM205.796 144.44C206.49 144.44 207.023 144.787 207.396 145.48C207.77 146.173 207.956 147.053 207.956 148.12C207.956 150.68 207.183 152.2 205.636 152.68C202.436 153.8 198.916 154.44 195.076 154.6C194.063 159.08 192.063 162.68 189.076 165.4C186.09 168.067 182.703 169.4 178.916 169.4C175.716 169.4 172.97 168.627 170.676 167.08C168.436 165.533 166.73 163.48 165.556 160.92C164.383 158.36 163.796 155.587 163.796 152.6C163.796 148.547 164.57 144.947 166.116 141.8C167.663 138.6 169.796 136.12 172.516 134.36C175.236 132.547 178.25 131.64 181.556 131.64C185.61 131.64 188.863 133.053 191.316 135.88C193.823 138.653 195.29 142.093 195.716 146.2C198.223 146.04 201.21 145.507 204.676 144.6C205.103 144.493 205.476 144.44 205.796 144.44ZM179.556 160.92C181.263 160.92 182.73 160.227 183.956 158.84C185.236 157.453 186.09 155.453 186.516 152.84C184.863 151.72 183.583 150.253 182.676 148.44C181.823 146.627 181.396 144.707 181.396 142.68C181.396 141.827 181.476 140.973 181.636 140.12H181.236C179.103 140.12 177.316 141.16 175.876 143.24C174.49 145.267 173.796 148.147 173.796 151.88C173.796 154.813 174.356 157.053 175.476 158.6C176.65 160.147 178.01 160.92 179.556 160.92ZM247.33 151.16C248.023 151.16 248.557 151.48 248.93 152.12C249.357 152.76 249.57 153.64 249.57 154.76C249.57 156.893 249.063 158.547 248.05 159.72C245.65 162.653 243.223 165 240.77 166.76C238.317 168.52 235.41 169.4 232.05 169.4C227.943 169.4 224.637 168.227 222.13 165.88C219.623 163.533 218.37 160.413 218.37 156.52C218.37 154.44 219.437 152.947 221.57 152.04C223.917 151.027 225.597 149.96 226.61 148.84C227.623 147.667 228.13 146.253 228.13 144.6C228.13 143.64 227.917 142.92 227.49 142.44C227.117 141.96 226.637 141.72 226.05 141.72C224.61 141.72 223.01 142.76 221.25 144.84C219.543 146.92 217.943 149.613 216.45 152.92C214.957 156.173 213.783 159.533 212.93 163C212.343 165.507 211.65 167.213 210.85 168.12C210.103 168.973 208.903 169.4 207.25 169.4C205.597 169.4 204.37 168.813 203.57 167.64C202.823 166.413 202.317 164.547 202.05 162.04C201.783 159.533 201.65 155.853 201.65 151C201.65 142.787 202.477 134.227 204.13 125.32C205.837 116.413 208.317 108.947 211.57 102.92C214.877 96.84 218.823 93.8 223.41 93.8C225.863 93.8 227.837 94.8667 229.33 97C230.877 99.08 231.65 101.8 231.65 105.16C231.65 110.547 230.077 116.147 226.93 121.96C223.783 127.72 218.663 134.467 211.57 142.2C211.41 144.973 211.33 147.827 211.33 150.76C213.89 144.093 216.823 139.267 220.13 136.28C223.437 133.24 226.53 131.72 229.41 131.72C232.077 131.72 234.21 132.627 235.81 134.44C237.463 136.253 238.29 138.493 238.29 141.16C238.29 144.093 237.543 146.787 236.05 149.24C234.557 151.693 231.997 153.88 228.37 155.8C228.583 157.24 229.223 158.413 230.29 159.32C231.41 160.173 232.743 160.6 234.29 160.6C235.943 160.6 237.543 159.96 239.09 158.68C240.637 157.4 242.663 155.267 245.17 152.28C245.81 151.533 246.53 151.16 247.33 151.16ZM221.73 101.72C220.77 101.72 219.703 103.107 218.53 105.88C217.357 108.6 216.21 112.307 215.09 117C214.023 121.64 213.143 126.707 212.45 132.2C215.757 128.307 218.477 124.067 220.61 119.48C222.797 114.893 223.89 110.733 223.89 107C223.89 105.293 223.703 103.987 223.33 103.08C222.957 102.173 222.423 101.72 221.73 101.72ZM253.601 126.44C251.361 126.44 249.681 125.933 248.561 124.92C247.441 123.853 246.881 122.387 246.881 120.52C246.881 118.653 247.601 117.107 249.041 115.88C250.535 114.6 252.375 113.96 254.561 113.96C256.535 113.96 258.135 114.44 259.361 115.4C260.588 116.36 261.201 117.72 261.201 119.48C261.201 121.613 260.508 123.32 259.121 124.6C257.735 125.827 255.895 126.44 253.601 126.44ZM252.961 169.4C249.495 169.4 246.961 168.173 245.361 165.72C243.815 163.267 243.041 160.013 243.041 155.96C243.041 153.56 243.335 150.493 243.921 146.76C244.561 142.973 245.361 139.453 246.321 136.2C246.801 134.493 247.441 133.32 248.241 132.68C249.041 132.04 250.321 131.72 252.081 131.72C254.801 131.72 256.161 132.627 256.161 134.44C256.161 135.773 255.655 138.867 254.641 143.72C253.361 149.587 252.721 153.56 252.721 155.64C252.721 157.24 252.935 158.467 253.361 159.32C253.788 160.173 254.508 160.6 255.521 160.6C256.481 160.6 257.681 159.933 259.121 158.6C260.561 157.267 262.481 155.16 264.881 152.28C265.521 151.533 266.241 151.16 267.041 151.16C267.735 151.16 268.268 151.48 268.641 152.12C269.068 152.76 269.281 153.64 269.281 154.76C269.281 156.893 268.775 158.547 267.761 159.72C262.481 166.173 257.548 169.4 252.961 169.4ZM291.449 153.56C292.142 153.56 292.675 153.88 293.049 154.52C293.475 155.16 293.689 156.04 293.689 157.16C293.689 159.08 293.235 160.733 292.329 162.12C290.835 164.413 288.862 166.2 286.409 167.48C284.009 168.76 281.129 169.4 277.769 169.4C272.649 169.4 268.675 167.88 265.849 164.84C263.022 161.747 261.609 157.587 261.609 152.36C261.609 148.68 262.382 145.267 263.929 142.12C265.475 138.92 267.609 136.387 270.329 134.52C273.102 132.653 276.222 131.72 279.689 131.72C282.782 131.72 285.262 132.653 287.129 134.52C288.995 136.333 289.929 138.813 289.929 141.96C289.929 145.64 288.595 148.813 285.929 151.48C283.315 154.093 278.835 156.173 272.489 157.72C273.769 160.173 275.929 161.4 278.969 161.4C281.155 161.4 282.942 160.893 284.329 159.88C285.769 158.867 287.422 157.16 289.289 154.76C289.929 153.96 290.649 153.56 291.449 153.56ZM278.329 139.56C276.355 139.56 274.675 140.707 273.289 143C271.955 145.293 271.289 148.067 271.289 151.32V151.48C274.435 150.733 276.915 149.613 278.729 148.12C280.542 146.627 281.449 144.893 281.449 142.92C281.449 141.907 281.155 141.107 280.569 140.52C280.035 139.88 279.289 139.56 278.329 139.56ZM331.591 169.4C329.618 169.4 328.205 168.973 327.351 168.12C326.498 167.213 326.071 165.533 326.071 163.08C326.071 161.427 326.231 159.32 326.551 156.76C326.925 154.147 327.511 150.573 328.311 146.04C329.698 137.667 330.791 130.413 331.591 124.28C332.071 120.44 332.311 117.24 332.311 114.68C332.311 112.28 331.431 111.08 329.671 111.08C328.285 111.08 326.605 111.8 324.631 113.24C322.711 114.627 320.578 116.867 318.231 119.96C317.485 120.973 316.658 121.48 315.751 121.48C315.005 121.48 314.338 121.133 313.751 120.44C313.218 119.693 312.951 118.867 312.951 117.96C312.951 117.107 313.111 116.253 313.431 115.4C313.805 114.493 314.391 113.48 315.191 112.36C317.751 108.787 320.605 106.04 323.751 104.12C326.898 102.147 330.045 101.16 333.191 101.16C336.125 101.16 338.365 102.093 339.911 103.96C341.511 105.827 342.311 108.547 342.311 112.12C342.311 113.56 342.178 115.267 341.911 117.24C341.645 119.16 341.405 120.733 341.191 121.96C340.978 123.187 340.818 124.04 340.711 124.52C343.751 115.827 347.165 109.773 350.951 106.36C354.738 102.893 358.898 101.16 363.431 101.16C366.898 101.16 369.618 102.387 371.591 104.84C373.618 107.293 374.631 110.76 374.631 115.24C374.631 117 374.391 119.187 373.911 121.8C376.578 114.44 379.698 109.16 383.271 105.96C386.845 102.76 390.951 101.16 395.591 101.16C399.325 101.16 402.178 102.36 404.151 104.76C406.178 107.16 407.191 110.52 407.191 114.84C407.191 117.187 406.845 120.04 406.151 123.4L401.271 146.28C400.738 148.947 400.471 151.24 400.471 153.16C400.471 155.4 400.978 157.08 401.991 158.2C403.058 159.32 404.525 159.88 406.391 159.88C408.151 159.88 409.858 159.293 411.511 158.12C413.218 156.947 415.218 155 417.511 152.28C418.151 151.533 418.871 151.16 419.671 151.16C420.365 151.16 420.898 151.48 421.271 152.12C421.698 152.76 421.911 153.64 421.911 154.76C421.911 156.84 421.405 158.493 420.391 159.72C417.618 163.08 414.871 165.533 412.151 167.08C409.431 168.627 406.578 169.4 403.591 169.4C399.058 169.4 395.511 168.067 392.951 165.4C390.391 162.68 389.111 159.053 389.111 154.52C389.111 151.373 389.751 146.813 391.031 140.84L394.231 126.2C394.338 125.72 394.525 124.867 394.791 123.64C395.058 122.413 395.271 121.267 395.431 120.2C395.591 119.08 395.671 117.987 395.671 116.92C395.671 115.053 395.298 113.667 394.551 112.76C393.858 111.8 392.845 111.32 391.511 111.32C389.005 111.32 386.365 112.947 383.591 116.2C380.871 119.4 378.258 124.733 375.751 132.2C373.298 139.667 371.298 149.373 369.751 161.32C369.378 164.52 368.711 166.68 367.751 167.8C366.845 168.867 365.351 169.4 363.271 169.4C361.458 169.4 360.125 168.973 359.271 168.12C358.471 167.267 358.071 165.667 358.071 163.32C358.071 161.133 358.365 158.28 358.951 154.76C359.538 151.187 360.285 147 361.191 142.2C363.645 129.293 364.871 120.973 364.871 117.24C364.871 115.213 364.471 113.72 363.671 112.76C362.925 111.8 361.778 111.32 360.231 111.32C357.618 111.32 354.925 112.813 352.151 115.8C349.378 118.733 346.658 123.987 343.991 131.56C341.378 139.08 339.191 149.267 337.431 162.12C337.058 164.84 336.498 166.733 335.751 167.8C335.058 168.867 333.671 169.4 331.591 169.4ZM425.305 169.4C421.998 169.4 419.358 168.2 417.385 165.8C415.412 163.4 414.425 160.253 414.425 156.36C414.425 152.093 415.412 148.067 417.385 144.28C419.358 140.44 421.972 137.373 425.225 135.08C428.532 132.733 432.025 131.56 435.705 131.56C436.878 131.56 437.652 131.8 438.025 132.28C438.452 132.707 438.798 133.507 439.065 134.68C440.185 134.467 441.358 134.36 442.585 134.36C445.198 134.36 446.505 135.293 446.505 137.16C446.505 138.28 446.105 140.947 445.305 145.16C444.078 151.293 443.465 155.56 443.465 157.96C443.465 158.76 443.652 159.4 444.025 159.88C444.452 160.36 444.985 160.6 445.625 160.6C446.638 160.6 447.865 159.96 449.305 158.68C450.745 157.347 452.692 155.213 455.145 152.28C455.785 151.533 456.505 151.16 457.305 151.16C457.998 151.16 458.532 151.48 458.905 152.12C459.332 152.76 459.545 153.64 459.545 154.76C459.545 156.893 459.038 158.547 458.025 159.72C455.838 162.44 453.518 164.733 451.065 166.6C448.612 168.467 446.238 169.4 443.945 169.4C442.185 169.4 440.558 168.813 439.065 167.64C437.625 166.413 436.532 164.76 435.785 162.68C433.012 167.16 429.518 169.4 425.305 169.4ZM428.185 161.32C429.358 161.32 430.478 160.627 431.545 159.24C432.612 157.853 433.385 156.013 433.865 153.72L436.825 139C434.585 139.053 432.505 139.907 430.585 141.56C428.718 143.16 427.225 145.293 426.105 147.96C424.985 150.627 424.425 153.453 424.425 156.44C424.425 158.093 424.745 159.32 425.385 160.12C426.078 160.92 427.012 161.32 428.185 161.32ZM488.723 151.16C489.416 151.16 489.95 151.48 490.323 152.12C490.75 152.76 490.963 153.64 490.963 154.76C490.963 156.893 490.456 158.547 489.443 159.72C487.15 162.547 484.643 164.867 481.923 166.68C479.203 168.493 476.083 169.4 472.563 169.4C461.683 169.4 456.243 161.747 456.243 146.44C456.243 144.093 456.323 141.72 456.483 139.32H453.363C451.763 139.32 450.67 139.027 450.083 138.44C449.55 137.853 449.283 136.92 449.283 135.64C449.283 132.653 450.483 131.16 452.883 131.16H457.443C458.35 125.293 459.736 119.933 461.603 115.08C463.47 110.227 465.71 106.36 468.323 103.48C470.99 100.6 473.843 99.16 476.883 99.16C479.123 99.16 480.883 100.147 482.163 102.12C483.443 104.093 484.083 106.573 484.083 109.56C484.083 117.827 480.616 125.027 473.683 131.16H482.643C483.496 131.16 484.11 131.347 484.483 131.72C484.856 132.093 485.043 132.787 485.043 133.8C485.043 137.48 482.03 139.32 476.003 139.32H466.243C466.136 141.987 466.083 144.067 466.083 145.56C466.083 151.107 466.723 155 468.003 157.24C469.336 159.48 471.416 160.6 474.243 160.6C476.536 160.6 478.563 159.907 480.323 158.52C482.083 157.133 484.163 155.053 486.563 152.28C487.203 151.533 487.923 151.16 488.723 151.16ZM474.723 106.84C473.923 106.84 473.016 107.853 472.003 109.88C471.043 111.853 470.11 114.627 469.203 118.2C468.35 121.72 467.63 125.64 467.043 129.96C470.19 127.24 472.536 124.2 474.083 120.84C475.683 117.427 476.483 114.333 476.483 111.56C476.483 108.413 475.896 106.84 474.723 106.84ZM513.089 153.56C513.783 153.56 514.316 153.88 514.689 154.52C515.116 155.16 515.329 156.04 515.329 157.16C515.329 159.08 514.876 160.733 513.969 162.12C512.476 164.413 510.503 166.2 508.049 167.48C505.649 168.76 502.769 169.4 499.409 169.4C494.289 169.4 490.316 167.88 487.489 164.84C484.663 161.747 483.249 157.587 483.249 152.36C483.249 148.68 484.023 145.267 485.569 142.12C487.116 138.92 489.249 136.387 491.969 134.52C494.743 132.653 497.863 131.72 501.329 131.72C504.423 131.72 506.903 132.653 508.769 134.52C510.636 136.333 511.569 138.813 511.569 141.96C511.569 145.64 510.236 148.813 507.569 151.48C504.956 154.093 500.476 156.173 494.129 157.72C495.409 160.173 497.569 161.4 500.609 161.4C502.796 161.4 504.583 160.893 505.969 159.88C507.409 158.867 509.063 157.16 510.929 154.76C511.569 153.96 512.289 153.56 513.089 153.56ZM499.969 139.56C497.996 139.56 496.316 140.707 494.929 143C493.596 145.293 492.929 148.067 492.929 151.32V151.48C496.076 150.733 498.556 149.613 500.369 148.12C502.183 146.627 503.089 144.893 503.089 142.92C503.089 141.907 502.796 141.107 502.209 140.52C501.676 139.88 500.929 139.56 499.969 139.56Z" fill="#333333"/>
</svg>
